<svg width="92" height="18" viewBox="0 0 92 18" fill="none" xmlns="http://www.w3.org/2000/svg">
<path d="M74.228 18L80.7377 0.199999H85.3149L91.7737 18H87.6797L86.3066 14.1094H79.5426L78.1695 18H74.228ZM80.5597 11.0326H85.264L82.8992 4.26857L80.5597 11.0326Z" fill="#FAFAFA"/>
<path d="M66.8074 0.199999C68.7739 0.199999 70.3505 0.742475 71.5372 1.82743C72.7408 2.89543 73.3426 4.3279 73.3426 6.12486C73.3426 7.26067 73.0714 8.26933 72.5289 9.15086C71.9864 10.0154 71.2405 10.6766 70.2912 11.1343L73.8003 18H69.5792L66.5786 12.0243H63.3746V18H59.5603V0.199999H66.8074ZM63.3746 3.37857V8.84572H66.5023C67.4008 8.84572 68.1128 8.5999 68.6383 8.10829C69.1808 7.61667 69.452 6.95552 69.452 6.12486C69.452 5.27724 69.1808 4.60762 68.6383 4.116C68.1128 3.62438 67.4008 3.37857 66.5023 3.37857H63.3746Z" fill="#FAFAFA"/>
<path d="M40.3811 18L46.8908 0.199999H51.468L57.9268 18H53.8328L52.4597 14.1094H45.6957L44.3225 18H40.3811ZM46.7128 11.0326H51.4171L49.0522 4.26857L46.7128 11.0326Z" fill="#FAFAFA"/>
<path d="M24 18V0.199999H27.4583L35.0106 11.414V0.199999H38.774V18H35.2903L27.738 6.786V18H24Z" fill="#FAFAFA"/>
<path d="M0 9H9L1.02426 16.9757C0.646285 17.3537 0 17.086 0 16.5515V9Z" fill="#714DFF"/>
<path d="M0 0.6C0 0.268629 0.268629 0 0.6 0H8.4C8.73137 0 9 0.268629 9 0.6V9H0V0.6Z" fill="#714DFF"/>
<path d="M18 9H9L16.9757 1.02426C17.3537 0.646285 18 0.913985 18 1.44853V9Z" fill="#714DFF"/>
<path d="M18 17.4C18 17.7314 17.7314 18 17.4 18H9.6C9.26863 18 9 17.7314 9 17.4V9H18V17.4Z" fill="#714DFF"/>
</svg>
